<svg width="30" height="30" viewBox="0 0 30 30" fill="none" xmlns="http://www.w3.org/2000/svg">
<g clip-path="url(#clip0_99_111)">
<path d="M15 30C23.2847 30 30 23.2847 30 15C30 6.71531 23.2847 0 15 0C6.71531 0 0 6.71531 0 15C0 23.2847 6.71531 30 15 30ZM15 2.05406C22.1494 2.05406 27.9459 7.84969 27.9459 15C27.9459 22.1494 22.1503 27.9459 15 27.9459C7.84969 27.9459 2.05406 22.1494 2.05406 15C2.05406 7.85063 7.85063 2.05406 15 2.05406V2.05406Z" fill="#BFC6D9"/>
<path d="M15 25.8722C21.0047 25.8722 25.8722 21.0047 25.8722 15C25.8722 8.99531 21.0047 4.12781 15 4.12781C8.99531 4.12781 4.12781 8.99531 4.12781 15C4.12781 21.0047 8.99531 25.8722 15 25.8722ZM8.79749 16.965C9.77999 16.965 10.2712 17.9475 10.2712 17.9475C11.1337 19.4109 12.6675 19.1756 13.2187 18.93C13.2187 18.4387 13.4334 17.6962 13.71 17.4562C11.5641 17.2144 9.77812 15.9825 9.77812 13.5262C9.77812 11.07 10.2712 10.5787 10.7625 10.0875C10.6631 9.84562 10.2525 8.95031 10.7775 7.63125C10.7775 7.63125 11.7431 7.63125 12.7256 9.105C13.2122 8.61843 14.6906 8.61374 15.1819 8.61374C15.6722 8.61374 17.1506 8.61843 17.6372 9.105C18.6197 7.63125 19.5872 7.63125 19.5872 7.63125C20.1122 8.95031 19.7016 9.84562 19.6022 10.0875C20.0934 10.5787 20.5847 11.07 20.5847 13.5262C20.5847 15.9825 18.8006 17.2144 16.6547 17.4562C16.9312 17.6962 17.1459 18.5409 17.1459 18.93V22.3687H13.2187C13.2187 22.3687 13.2244 21.2034 13.2187 20.4037C10.53 20.9822 9.78 18.93 9.78 18.93C9.28875 17.9475 8.79749 17.4562 8.79749 17.4562C7.815 16.8722 8.79749 16.965 8.79749 16.965Z" fill="#BFC6D9"/>
</g>
<defs>
<clipPath id="clip0_99_111">
<rect width="30" height="30" fill="white"/>
</clipPath>
</defs>
</svg>
