<svg width="63" height="14" viewBox="0 0 63 14" fill="none" xmlns="http://www.w3.org/2000/svg">
<path d="M4.27 12.21C3.64933 12.21 3.08933 12.0653 2.59 11.776C2.09533 11.4867 1.70333 11.0947 1.414 10.6C1.12467 10.1007 0.98 9.54067 0.98 8.92V5C0.98 4.37933 1.12467 3.82167 1.414 3.327C1.70333 2.82767 2.09533 2.43333 2.59 2.144C3.08933 1.85467 3.64933 1.71 4.27 1.71C4.89067 1.71 5.44833 1.85467 5.943 2.144C6.44233 2.43333 6.83667 2.82767 7.126 3.327C7.41533 3.82167 7.56 4.37933 7.56 5V8.92C7.56 9.54067 7.41533 10.1007 7.126 10.6C6.83667 11.0947 6.44233 11.4867 5.943 11.776C5.44833 12.0653 4.89067 12.21 4.27 12.21ZM4.27 11.216C4.68533 11.216 5.06333 11.1157 5.404 10.915C5.74467 10.7097 6.01533 10.4367 6.216 10.096C6.41667 9.75533 6.517 9.37967 6.517 8.969V4.951C6.517 4.53567 6.41667 4.15767 6.216 3.817C6.01533 3.47633 5.74467 3.20567 5.404 3.005C5.06333 2.79967 4.68533 2.697 4.27 2.697C3.85467 2.697 3.47667 2.79967 3.136 3.005C2.79533 3.20567 2.52467 3.47633 2.324 3.817C2.12333 4.15767 2.023 4.53567 2.023 4.951V8.969C2.023 9.37967 2.12333 9.75533 2.324 10.096C2.52467 10.4367 2.79533 10.7097 3.136 10.915C3.47667 11.1157 3.85467 11.216 4.27 11.216ZM9.24492 11.993L9.25192 11.055L13.8089 6.939C14.2009 6.58433 14.4599 6.24833 14.5859 5.931C14.7166 5.609 14.7819 5.273 14.7819 4.923C14.7819 4.50767 14.6839 4.132 14.4879 3.796C14.2919 3.46 14.0283 3.194 13.6969 2.998C13.3656 2.79733 12.9946 2.697 12.5839 2.697C12.1546 2.697 11.7719 2.79967 11.4359 3.005C11.0999 3.21033 10.8339 3.481 10.6379 3.817C10.4466 4.153 10.3533 4.51933 10.3579 4.916H9.30792C9.30792 4.30467 9.45259 3.75633 9.74192 3.271C10.0313 2.78567 10.4233 2.40533 10.9179 2.13C11.4126 1.85 11.9726 1.71 12.5979 1.71C13.2093 1.71 13.7576 1.85467 14.2429 2.144C14.7329 2.42867 15.1179 2.816 15.3979 3.306C15.6826 3.79133 15.8249 4.33267 15.8249 4.93C15.8249 5.35 15.7736 5.721 15.6709 6.043C15.5729 6.36033 15.4166 6.65667 15.2019 6.932C14.9919 7.20267 14.7236 7.48267 14.3969 7.772L10.3509 11.426L10.1899 11.006H15.8249V11.993H9.24492Z" fill="#BFC6D9"/>
<path d="M27.27 12.21C26.6493 12.21 26.0893 12.0653 25.59 11.776C25.0953 11.4867 24.7033 11.0947 24.414 10.6C24.1247 10.1007 23.98 9.54067 23.98 8.92V5C23.98 4.37933 24.1247 3.82167 24.414 3.327C24.7033 2.82767 25.0953 2.43333 25.59 2.144C26.0893 1.85467 26.6493 1.71 27.27 1.71C27.8907 1.71 28.4483 1.85467 28.943 2.144C29.4423 2.43333 29.8367 2.82767 30.126 3.327C30.4153 3.82167 30.56 4.37933 30.56 5V8.92C30.56 9.54067 30.4153 10.1007 30.126 10.6C29.8367 11.0947 29.4423 11.4867 28.943 11.776C28.4483 12.0653 27.8907 12.21 27.27 12.21ZM27.27 11.216C27.6853 11.216 28.0633 11.1157 28.404 10.915C28.7447 10.7097 29.0153 10.4367 29.216 10.096C29.4167 9.75533 29.517 9.37967 29.517 8.969V4.951C29.517 4.53567 29.4167 4.15767 29.216 3.817C29.0153 3.47633 28.7447 3.20567 28.404 3.005C28.0633 2.79967 27.6853 2.697 27.27 2.697C26.8547 2.697 26.4767 2.79967 26.136 3.005C25.7953 3.20567 25.5247 3.47633 25.324 3.817C25.1233 4.15767 25.023 4.53567 25.023 4.951V8.969C25.023 9.37967 25.1233 9.75533 25.324 10.096C25.5247 10.4367 25.7953 10.7097 26.136 10.915C26.4767 11.1157 26.8547 11.216 27.27 11.216ZM32.2449 11.993L32.2519 11.055L36.8089 6.939C37.2009 6.58433 37.4599 6.24833 37.5859 5.931C37.7166 5.609 37.7819 5.273 37.7819 4.923C37.7819 4.50767 37.6839 4.132 37.4879 3.796C37.2919 3.46 37.0283 3.194 36.6969 2.998C36.3656 2.79733 35.9946 2.697 35.5839 2.697C35.1546 2.697 34.7719 2.79967 34.4359 3.005C34.0999 3.21033 33.8339 3.481 33.6379 3.817C33.4466 4.153 33.3533 4.51933 33.3579 4.916H32.3079C32.3079 4.30467 32.4526 3.75633 32.7419 3.271C33.0313 2.78567 33.4233 2.40533 33.9179 2.13C34.4126 1.85 34.9726 1.71 35.5979 1.71C36.2093 1.71 36.7576 1.85467 37.2429 2.144C37.7329 2.42867 38.1179 2.816 38.3979 3.306C38.6826 3.79133 38.8249 4.33267 38.8249 4.93C38.8249 5.35 38.7736 5.721 38.6709 6.043C38.5729 6.36033 38.4166 6.65667 38.2019 6.932C37.9919 7.20267 37.7236 7.48267 37.3969 7.772L33.3509 11.426L33.1899 11.006H38.8249V11.993H32.2449Z" fill="#BFC6D9"/>
<path d="M50.27 12.21C49.6493 12.21 49.0893 12.0653 48.59 11.776C48.0953 11.4867 47.7033 11.0947 47.414 10.6C47.1247 10.1007 46.98 9.54067 46.98 8.92V5C46.98 4.37933 47.1247 3.82167 47.414 3.327C47.7033 2.82767 48.0953 2.43333 48.59 2.144C49.0893 1.85467 49.6493 1.71 50.27 1.71C50.8907 1.71 51.4483 1.85467 51.943 2.144C52.4423 2.43333 52.8367 2.82767 53.126 3.327C53.4153 3.82167 53.56 4.37933 53.56 5V8.92C53.56 9.54067 53.4153 10.1007 53.126 10.6C52.8367 11.0947 52.4423 11.4867 51.943 11.776C51.4483 12.0653 50.8907 12.21 50.27 12.21ZM50.27 11.216C50.6853 11.216 51.0633 11.1157 51.404 10.915C51.7447 10.7097 52.0153 10.4367 52.216 10.096C52.4167 9.75533 52.517 9.37967 52.517 8.969V4.951C52.517 4.53567 52.4167 4.15767 52.216 3.817C52.0153 3.47633 51.7447 3.20567 51.404 3.005C51.0633 2.79967 50.6853 2.697 50.27 2.697C49.8547 2.697 49.4767 2.79967 49.136 3.005C48.7953 3.20567 48.5247 3.47633 48.324 3.817C48.1233 4.15767 48.023 4.53567 48.023 4.951V8.969C48.023 9.37967 48.1233 9.75533 48.324 10.096C48.5247 10.4367 48.7953 10.7097 49.136 10.915C49.4767 11.1157 49.8547 11.216 50.27 11.216ZM55.2449 11.993L55.2519 11.055L59.8089 6.939C60.2009 6.58433 60.4599 6.24833 60.5859 5.931C60.7166 5.609 60.7819 5.273 60.7819 4.923C60.7819 4.50767 60.6839 4.132 60.4879 3.796C60.2919 3.46 60.0283 3.194 59.6969 2.998C59.3656 2.79733 58.9946 2.697 58.5839 2.697C58.1546 2.697 57.7719 2.79967 57.4359 3.005C57.0999 3.21033 56.8339 3.481 56.6379 3.817C56.4466 4.153 56.3533 4.51933 56.3579 4.916H55.3079C55.3079 4.30467 55.4526 3.75633 55.7419 3.271C56.0313 2.78567 56.4233 2.40533 56.9179 2.13C57.4126 1.85 57.9726 1.71 58.5979 1.71C59.2093 1.71 59.7576 1.85467 60.2429 2.144C60.7329 2.42867 61.1179 2.816 61.3979 3.306C61.6826 3.79133 61.8249 4.33267 61.8249 4.93C61.8249 5.35 61.7736 5.721 61.6709 6.043C61.5729 6.36033 61.4166 6.65667 61.2019 6.932C60.9919 7.20267 60.7236 7.48267 60.3969 7.772L56.3509 11.426L56.1899 11.006H61.8249V11.993H55.2449Z" fill="#BFC6D9"/>
</svg>
