<svg width="63" height="14" viewBox="0 0 63 14" fill="none" xmlns="http://www.w3.org/2000/svg">
<path d="M4.27 12.21C3.64933 12.21 3.08933 12.0653 2.59 11.776C2.09533 11.4867 1.70333 11.0947 1.414 10.6C1.12467 10.1007 0.98 9.54067 0.98 8.92V5C0.98 4.37933 1.12467 3.82167 1.414 3.327C1.70333 2.82767 2.09533 2.43333 2.59 2.144C3.08933 1.85467 3.64933 1.71 4.27 1.71C4.89067 1.71 5.44833 1.85467 5.943 2.144C6.44233 2.43333 6.83667 2.82767 7.126 3.327C7.41533 3.82167 7.56 4.37933 7.56 5V8.92C7.56 9.54067 7.41533 10.1007 7.126 10.6C6.83667 11.0947 6.44233 11.4867 5.943 11.776C5.44833 12.0653 4.89067 12.21 4.27 12.21ZM4.27 11.216C4.68533 11.216 5.06333 11.1157 5.404 10.915C5.74467 10.7097 6.01533 10.4367 6.216 10.096C6.41667 9.75533 6.517 9.37967 6.517 8.969V4.951C6.517 4.53567 6.41667 4.15767 6.216 3.817C6.01533 3.47633 5.74467 3.20567 5.404 3.005C5.06333 2.79967 4.68533 2.697 4.27 2.697C3.85467 2.697 3.47667 2.79967 3.136 3.005C2.79533 3.20567 2.52467 3.47633 2.324 3.817C2.12333 4.15767 2.023 4.53567 2.023 4.951V8.969C2.023 9.37967 2.12333 9.75533 2.324 10.096C2.52467 10.4367 2.79533 10.7097 3.136 10.915C3.47667 11.1157 3.85467 11.216 4.27 11.216ZM13.9629 12V10.047H9.24492V9.067L12.6189 1.92H13.7739L10.3999 9.067H13.9629V6.127H14.9989V9.067H16.0979V10.047H14.9989V12H13.9629Z" fill="#BFC6D9"/>
<path d="M27.27 12.21C26.6493 12.21 26.0893 12.0653 25.59 11.776C25.0953 11.4867 24.7033 11.0947 24.414 10.6C24.1247 10.1007 23.98 9.54067 23.98 8.92V5C23.98 4.37933 24.1247 3.82167 24.414 3.327C24.7033 2.82767 25.0953 2.43333 25.59 2.144C26.0893 1.85467 26.6493 1.71 27.27 1.71C27.8907 1.71 28.4483 1.85467 28.943 2.144C29.4423 2.43333 29.8367 2.82767 30.126 3.327C30.4153 3.82167 30.56 4.37933 30.56 5V8.92C30.56 9.54067 30.4153 10.1007 30.126 10.6C29.8367 11.0947 29.4423 11.4867 28.943 11.776C28.4483 12.0653 27.8907 12.21 27.27 12.21ZM27.27 11.216C27.6853 11.216 28.0633 11.1157 28.404 10.915C28.7447 10.7097 29.0153 10.4367 29.216 10.096C29.4167 9.75533 29.517 9.37967 29.517 8.969V4.951C29.517 4.53567 29.4167 4.15767 29.216 3.817C29.0153 3.47633 28.7447 3.20567 28.404 3.005C28.0633 2.79967 27.6853 2.697 27.27 2.697C26.8547 2.697 26.4767 2.79967 26.136 3.005C25.7953 3.20567 25.5247 3.47633 25.324 3.817C25.1233 4.15767 25.023 4.53567 25.023 4.951V8.969C25.023 9.37967 25.1233 9.75533 25.324 10.096C25.5247 10.4367 25.7953 10.7097 26.136 10.915C26.4767 11.1157 26.8547 11.216 27.27 11.216ZM36.9629 12V10.047H32.2449V9.067L35.6189 1.92H36.7739L33.3999 9.067H36.9629V6.127H37.9989V9.067H39.0979V10.047H37.9989V12H36.9629Z" fill="#BFC6D9"/>
<path d="M50.27 12.21C49.6493 12.21 49.0893 12.0653 48.59 11.776C48.0953 11.4867 47.7033 11.0947 47.414 10.6C47.1247 10.1007 46.98 9.54067 46.98 8.92V5C46.98 4.37933 47.1247 3.82167 47.414 3.327C47.7033 2.82767 48.0953 2.43333 48.59 2.144C49.0893 1.85467 49.6493 1.71 50.27 1.71C50.8907 1.71 51.4483 1.85467 51.943 2.144C52.4423 2.43333 52.8367 2.82767 53.126 3.327C53.4153 3.82167 53.56 4.37933 53.56 5V8.92C53.56 9.54067 53.4153 10.1007 53.126 10.6C52.8367 11.0947 52.4423 11.4867 51.943 11.776C51.4483 12.0653 50.8907 12.21 50.27 12.21ZM50.27 11.216C50.6853 11.216 51.0633 11.1157 51.404 10.915C51.7447 10.7097 52.0153 10.4367 52.216 10.096C52.4167 9.75533 52.517 9.37967 52.517 8.969V4.951C52.517 4.53567 52.4167 4.15767 52.216 3.817C52.0153 3.47633 51.7447 3.20567 51.404 3.005C51.0633 2.79967 50.6853 2.697 50.27 2.697C49.8547 2.697 49.4767 2.79967 49.136 3.005C48.7953 3.20567 48.5247 3.47633 48.324 3.817C48.1233 4.15767 48.023 4.53567 48.023 4.951V8.969C48.023 9.37967 48.1233 9.75533 48.324 10.096C48.5247 10.4367 48.7953 10.7097 49.136 10.915C49.4767 11.1157 49.8547 11.216 50.27 11.216ZM59.9629 12V10.047H55.2449V9.067L58.6189 1.92H59.7739L56.3999 9.067H59.9629V6.127H60.9989V9.067H62.0979V10.047H60.9989V12H59.9629Z" fill="#BFC6D9"/>
</svg>
