<svg width="30" height="30" viewBox="0 0 30 30" fill="none" xmlns="http://www.w3.org/2000/svg">
<path d="M14.9999 2.33356C8.01582 2.33356 2.33368 8.0157 2.33368 15C2.33368 21.9845 8.01582 27.6665 14.9999 27.6665C21.9842 27.6665 27.6666 21.9845 27.6666 15C27.6664 8.0157 21.984 2.33356 14.9999 2.33356V2.33356ZM14.9999 26.4172C8.70459 26.4172 3.58296 21.2955 3.58296 15C3.58296 8.70468 8.70459 3.58284 14.9999 3.58284C21.2953 3.58284 26.4173 8.70468 26.4173 15C26.4171 21.2955 21.2953 26.4172 14.9999 26.4172Z" fill="#BFC6D9"/>
<path d="M8.56653 12.3161H11.4978V19.9646H8.56653V12.3161Z" fill="#BFC6D9"/>
<path d="M10.003 11.096C10.8223 11.096 11.4865 10.4901 11.4865 9.74261C11.4865 8.99515 10.8223 8.38922 10.003 8.38922C9.18366 8.38922 8.51947 8.99515 8.51947 9.74261C8.51947 10.4901 9.18366 11.096 10.003 11.096Z" fill="#BFC6D9"/>
<path d="M18.8658 12.1433C18.2655 12.1433 17.7569 12.2526 17.3388 12.471C16.9211 12.6897 16.5084 13.0532 16.1001 13.5621V12.3161H13.3704V19.9646H16.3017V16.2915C16.3017 15.5953 16.4122 15.1131 16.6331 14.844C16.854 14.5752 17.1418 14.4407 17.4972 14.4407C17.8189 14.4407 18.0685 14.5405 18.2464 14.7397C18.4242 14.939 18.5127 15.2786 18.5127 15.7589V19.9646H21.4585V15.1035C21.4585 14.0951 21.229 13.3497 20.7703 12.8671C20.3123 12.3844 19.677 12.1433 18.8658 12.1433Z" fill="#BFC6D9"/>
</svg>
