<svg width="50" height="50" viewBox="0 0 50 50" fill="none" xmlns="http://www.w3.org/2000/svg">
<g clip-path="url(#clip0_6_3)">
<path d="M25 6C14.5 6 6 14.5 6 25C6 35.5 14.5 44 25 44C35.5 44 44 35.5 44 25C44 14.5 35.5 6 25 6ZM25 42C15.6 42 8 34.4 8 25C8 15.6 15.6 8 25 8C34.4 8 42 15.6 42 25C42 34.4 34.4 42 25 42ZM34.75 25C34.75 25.55 34.3 26 33.75 26H16.25C15.7 26 15.25 25.55 15.25 25C15.25 24.45 15.7 24 16.25 24H33.75C34.3 24 34.75 24.45 34.75 25ZM34.75 31C34.75 31.55 34.3 32 33.75 32H16.25C15.7 32 15.25 31.55 15.25 31C15.25 30.45 15.7 30 16.25 30H33.75C34.3 30 34.75 30.45 34.75 31ZM34.75 19C34.75 19.55 34.3 20 33.75 20H16.25C15.7 20 15.25 19.55 15.25 19C15.25 18.45 15.7 18 16.25 18H33.75C34.3 18 34.75 18.45 34.75 19Z" fill="#BFC6D9"/>
<path d="M192 -605V237H-700V-605H192ZM196 -609H-704V241H196V-609Z" fill="#0000FF"/>
</g>
<defs>
<clipPath id="clip0_6_3">
<rect width="50" height="50" fill="white"/>
</clipPath>
</defs>
</svg>
