<svg width="62" height="14" viewBox="0 0 62 14" fill="none" xmlns="http://www.w3.org/2000/svg">
<path d="M4.27 12.21C3.64933 12.21 3.08933 12.0653 2.59 11.776C2.09533 11.4867 1.70333 11.0947 1.414 10.6C1.12467 10.1007 0.98 9.54067 0.98 8.92V5C0.98 4.37933 1.12467 3.82167 1.414 3.327C1.70333 2.82767 2.09533 2.43333 2.59 2.144C3.08933 1.85467 3.64933 1.71 4.27 1.71C4.89067 1.71 5.44833 1.85467 5.943 2.144C6.44233 2.43333 6.83667 2.82767 7.126 3.327C7.41533 3.82167 7.56 4.37933 7.56 5V8.92C7.56 9.54067 7.41533 10.1007 7.126 10.6C6.83667 11.0947 6.44233 11.4867 5.943 11.776C5.44833 12.0653 4.89067 12.21 4.27 12.21ZM4.27 11.216C4.68533 11.216 5.06333 11.1157 5.404 10.915C5.74467 10.7097 6.01533 10.4367 6.216 10.096C6.41667 9.75533 6.517 9.37967 6.517 8.969V4.951C6.517 4.53567 6.41667 4.15767 6.216 3.817C6.01533 3.47633 5.74467 3.20567 5.404 3.005C5.06333 2.79967 4.68533 2.697 4.27 2.697C3.85467 2.697 3.47667 2.79967 3.136 3.005C2.79533 3.20567 2.52467 3.47633 2.324 3.817C2.12333 4.15767 2.023 4.53567 2.023 4.951V8.969C2.023 9.37967 2.12333 9.75533 2.324 10.096C2.52467 10.4367 2.79533 10.7097 3.136 10.915C3.47667 11.1157 3.85467 11.216 4.27 11.216ZM11.2819 12V3.068L9.38492 4.209V3.054L11.2819 1.92H12.3249V12H11.2819Z" fill="#BFC6D9"/>
<path d="M28.27 12.21C27.6493 12.21 27.0893 12.0653 26.59 11.776C26.0953 11.4867 25.7033 11.0947 25.414 10.6C25.1247 10.1007 24.98 9.54067 24.98 8.92V5C24.98 4.37933 25.1247 3.82167 25.414 3.327C25.7033 2.82767 26.0953 2.43333 26.59 2.144C27.0893 1.85467 27.6493 1.71 28.27 1.71C28.8907 1.71 29.4483 1.85467 29.943 2.144C30.4423 2.43333 30.8367 2.82767 31.126 3.327C31.4153 3.82167 31.56 4.37933 31.56 5V8.92C31.56 9.54067 31.4153 10.1007 31.126 10.6C30.8367 11.0947 30.4423 11.4867 29.943 11.776C29.4483 12.0653 28.8907 12.21 28.27 12.21ZM28.27 11.216C28.6853 11.216 29.0633 11.1157 29.404 10.915C29.7447 10.7097 30.0153 10.4367 30.216 10.096C30.4167 9.75533 30.517 9.37967 30.517 8.969V4.951C30.517 4.53567 30.4167 4.15767 30.216 3.817C30.0153 3.47633 29.7447 3.20567 29.404 3.005C29.0633 2.79967 28.6853 2.697 28.27 2.697C27.8547 2.697 27.4767 2.79967 27.136 3.005C26.7953 3.20567 26.5247 3.47633 26.324 3.817C26.1233 4.15767 26.023 4.53567 26.023 4.951V8.969C26.023 9.37967 26.1233 9.75533 26.324 10.096C26.5247 10.4367 26.7953 10.7097 27.136 10.915C27.4767 11.1157 27.8547 11.216 28.27 11.216ZM35.2819 12V3.068L33.3849 4.209V3.054L35.2819 1.92H36.3249V12H35.2819Z" fill="#BFC6D9"/>
<path d="M52.27 12.21C51.6493 12.21 51.0893 12.0653 50.59 11.776C50.0953 11.4867 49.7033 11.0947 49.414 10.6C49.1247 10.1007 48.98 9.54067 48.98 8.92V5C48.98 4.37933 49.1247 3.82167 49.414 3.327C49.7033 2.82767 50.0953 2.43333 50.59 2.144C51.0893 1.85467 51.6493 1.71 52.27 1.71C52.8907 1.71 53.4483 1.85467 53.943 2.144C54.4423 2.43333 54.8367 2.82767 55.126 3.327C55.4153 3.82167 55.56 4.37933 55.56 5V8.92C55.56 9.54067 55.4153 10.1007 55.126 10.6C54.8367 11.0947 54.4423 11.4867 53.943 11.776C53.4483 12.0653 52.8907 12.21 52.27 12.21ZM52.27 11.216C52.6853 11.216 53.0633 11.1157 53.404 10.915C53.7447 10.7097 54.0153 10.4367 54.216 10.096C54.4167 9.75533 54.517 9.37967 54.517 8.969V4.951C54.517 4.53567 54.4167 4.15767 54.216 3.817C54.0153 3.47633 53.7447 3.20567 53.404 3.005C53.0633 2.79967 52.6853 2.697 52.27 2.697C51.8547 2.697 51.4767 2.79967 51.136 3.005C50.7953 3.20567 50.5247 3.47633 50.324 3.817C50.1233 4.15767 50.023 4.53567 50.023 4.951V8.969C50.023 9.37967 50.1233 9.75533 50.324 10.096C50.5247 10.4367 50.7953 10.7097 51.136 10.915C51.4767 11.1157 51.8547 11.216 52.27 11.216ZM59.2819 12V3.068L57.3849 4.209V3.054L59.2819 1.92H60.3249V12H59.2819Z" fill="#BFC6D9"/>
</svg>
