<svg width="63" height="14" viewBox="0 0 63 14" fill="none" xmlns="http://www.w3.org/2000/svg">
<path d="M4.27 12.21C3.64933 12.21 3.08933 12.0653 2.59 11.776C2.09533 11.4867 1.70333 11.0947 1.414 10.6C1.12467 10.1007 0.98 9.54067 0.98 8.92V5C0.98 4.37933 1.12467 3.82167 1.414 3.327C1.70333 2.82767 2.09533 2.43333 2.59 2.144C3.08933 1.85467 3.64933 1.71 4.27 1.71C4.89067 1.71 5.44833 1.85467 5.943 2.144C6.44233 2.43333 6.83667 2.82767 7.126 3.327C7.41533 3.82167 7.56 4.37933 7.56 5V8.92C7.56 9.54067 7.41533 10.1007 7.126 10.6C6.83667 11.0947 6.44233 11.4867 5.943 11.776C5.44833 12.0653 4.89067 12.21 4.27 12.21ZM4.27 11.216C4.68533 11.216 5.06333 11.1157 5.404 10.915C5.74467 10.7097 6.01533 10.4367 6.216 10.096C6.41667 9.75533 6.517 9.37967 6.517 8.969V4.951C6.517 4.53567 6.41667 4.15767 6.216 3.817C6.01533 3.47633 5.74467 3.20567 5.404 3.005C5.06333 2.79967 4.68533 2.697 4.27 2.697C3.85467 2.697 3.47667 2.79967 3.136 3.005C2.79533 3.20567 2.52467 3.47633 2.324 3.817C2.12333 4.15767 2.023 4.53567 2.023 4.951V8.969C2.023 9.37967 2.12333 9.75533 2.324 10.096C2.52467 10.4367 2.79533 10.7097 3.136 10.915C3.47667 11.1157 3.85467 11.216 4.27 11.216ZM12.2339 12.203C11.7346 12.203 11.2749 12.1143 10.8549 11.937C10.4349 11.7597 10.0733 11.5077 9.76992 11.181C9.46659 10.8497 9.24492 10.4553 9.10492 9.998L10.0849 9.704C10.2529 10.2033 10.5283 10.5813 10.9109 10.838C11.2983 11.0947 11.7346 11.2183 12.2199 11.209C12.6679 11.1997 13.0529 11.0993 13.3749 10.908C13.7016 10.7167 13.9513 10.4507 14.1239 10.11C14.2966 9.76933 14.3829 9.375 14.3829 8.927C14.3829 8.241 14.1823 7.69033 13.7809 7.275C13.3843 6.855 12.8593 6.645 12.2059 6.645C12.0239 6.645 11.8326 6.67067 11.6319 6.722C11.4313 6.76867 11.2446 6.83633 11.0719 6.925L10.5539 6.106L14.4739 2.487L14.6419 2.907H9.50392V1.92H15.3279V2.921L11.9119 6.183L11.8979 5.777C12.5979 5.68833 13.2139 5.76767 13.7459 6.015C14.2779 6.26233 14.6933 6.64033 14.9919 7.149C15.2953 7.653 15.4469 8.24567 15.4469 8.927C15.4469 9.571 15.3069 10.1403 15.0269 10.635C14.7516 11.125 14.3713 11.51 13.8859 11.79C13.4006 12.0653 12.8499 12.203 12.2339 12.203Z" fill="#BFC6D9"/>
<path d="M27.27 12.21C26.6493 12.21 26.0893 12.0653 25.59 11.776C25.0953 11.4867 24.7033 11.0947 24.414 10.6C24.1247 10.1007 23.98 9.54067 23.98 8.92V5C23.98 4.37933 24.1247 3.82167 24.414 3.327C24.7033 2.82767 25.0953 2.43333 25.59 2.144C26.0893 1.85467 26.6493 1.71 27.27 1.71C27.8907 1.71 28.4483 1.85467 28.943 2.144C29.4423 2.43333 29.8367 2.82767 30.126 3.327C30.4153 3.82167 30.56 4.37933 30.56 5V8.92C30.56 9.54067 30.4153 10.1007 30.126 10.6C29.8367 11.0947 29.4423 11.4867 28.943 11.776C28.4483 12.0653 27.8907 12.21 27.27 12.21ZM27.27 11.216C27.6853 11.216 28.0633 11.1157 28.404 10.915C28.7447 10.7097 29.0153 10.4367 29.216 10.096C29.4167 9.75533 29.517 9.37967 29.517 8.969V4.951C29.517 4.53567 29.4167 4.15767 29.216 3.817C29.0153 3.47633 28.7447 3.20567 28.404 3.005C28.0633 2.79967 27.6853 2.697 27.27 2.697C26.8547 2.697 26.4767 2.79967 26.136 3.005C25.7953 3.20567 25.5247 3.47633 25.324 3.817C25.1233 4.15767 25.023 4.53567 25.023 4.951V8.969C25.023 9.37967 25.1233 9.75533 25.324 10.096C25.5247 10.4367 25.7953 10.7097 26.136 10.915C26.4767 11.1157 26.8547 11.216 27.27 11.216ZM35.2339 12.203C34.7346 12.203 34.2749 12.1143 33.8549 11.937C33.4349 11.7597 33.0733 11.5077 32.7699 11.181C32.4666 10.8497 32.2449 10.4553 32.1049 9.998L33.0849 9.704C33.2529 10.2033 33.5283 10.5813 33.9109 10.838C34.2983 11.0947 34.7346 11.2183 35.2199 11.209C35.6679 11.1997 36.0529 11.0993 36.3749 10.908C36.7016 10.7167 36.9513 10.4507 37.1239 10.11C37.2966 9.76933 37.3829 9.375 37.3829 8.927C37.3829 8.241 37.1823 7.69033 36.7809 7.275C36.3843 6.855 35.8593 6.645 35.2059 6.645C35.0239 6.645 34.8326 6.67067 34.6319 6.722C34.4313 6.76867 34.2446 6.83633 34.0719 6.925L33.5539 6.106L37.4739 2.487L37.6419 2.907H32.5039V1.92H38.3279V2.921L34.9119 6.183L34.8979 5.777C35.5979 5.68833 36.2139 5.76767 36.7459 6.015C37.2779 6.26233 37.6933 6.64033 37.9919 7.149C38.2953 7.653 38.4469 8.24567 38.4469 8.927C38.4469 9.571 38.3069 10.1403 38.0269 10.635C37.7516 11.125 37.3713 11.51 36.8859 11.79C36.4006 12.0653 35.8499 12.203 35.2339 12.203Z" fill="#BFC6D9"/>
<path d="M50.27 12.21C49.6493 12.21 49.0893 12.0653 48.59 11.776C48.0953 11.4867 47.7033 11.0947 47.414 10.6C47.1247 10.1007 46.98 9.54067 46.98 8.92V5C46.98 4.37933 47.1247 3.82167 47.414 3.327C47.7033 2.82767 48.0953 2.43333 48.59 2.144C49.0893 1.85467 49.6493 1.71 50.27 1.71C50.8907 1.71 51.4483 1.85467 51.943 2.144C52.4423 2.43333 52.8367 2.82767 53.126 3.327C53.4153 3.82167 53.56 4.37933 53.56 5V8.92C53.56 9.54067 53.4153 10.1007 53.126 10.6C52.8367 11.0947 52.4423 11.4867 51.943 11.776C51.4483 12.0653 50.8907 12.21 50.27 12.21ZM50.27 11.216C50.6853 11.216 51.0633 11.1157 51.404 10.915C51.7447 10.7097 52.0153 10.4367 52.216 10.096C52.4167 9.75533 52.517 9.37967 52.517 8.969V4.951C52.517 4.53567 52.4167 4.15767 52.216 3.817C52.0153 3.47633 51.7447 3.20567 51.404 3.005C51.0633 2.79967 50.6853 2.697 50.27 2.697C49.8547 2.697 49.4767 2.79967 49.136 3.005C48.7953 3.20567 48.5247 3.47633 48.324 3.817C48.1233 4.15767 48.023 4.53567 48.023 4.951V8.969C48.023 9.37967 48.1233 9.75533 48.324 10.096C48.5247 10.4367 48.7953 10.7097 49.136 10.915C49.4767 11.1157 49.8547 11.216 50.27 11.216ZM58.2339 12.203C57.7346 12.203 57.2749 12.1143 56.8549 11.937C56.4349 11.7597 56.0733 11.5077 55.7699 11.181C55.4666 10.8497 55.2449 10.4553 55.1049 9.998L56.0849 9.704C56.2529 10.2033 56.5283 10.5813 56.9109 10.838C57.2983 11.0947 57.7346 11.2183 58.2199 11.209C58.6679 11.1997 59.0529 11.0993 59.3749 10.908C59.7016 10.7167 59.9513 10.4507 60.1239 10.11C60.2966 9.76933 60.3829 9.375 60.3829 8.927C60.3829 8.241 60.1823 7.69033 59.7809 7.275C59.3843 6.855 58.8593 6.645 58.2059 6.645C58.0239 6.645 57.8326 6.67067 57.6319 6.722C57.4313 6.76867 57.2446 6.83633 57.0719 6.925L56.5539 6.106L60.4739 2.487L60.6419 2.907H55.5039V1.92H61.3279V2.921L57.9119 6.183L57.8979 5.777C58.5979 5.68833 59.2139 5.76767 59.7459 6.015C60.2779 6.26233 60.6933 6.64033 60.9919 7.149C61.2953 7.653 61.4469 8.24567 61.4469 8.927C61.4469 9.571 61.3069 10.1403 61.0269 10.635C60.7516 11.125 60.3713 11.51 59.8859 11.79C59.4006 12.0653 58.8499 12.203 58.2339 12.203Z" fill="#BFC6D9"/>
</svg>
