<svg width="30" height="30" viewBox="0 0 30 30" fill="none" xmlns="http://www.w3.org/2000/svg">
<path d="M14.9999 2.33356C8.01579 2.33356 2.33365 8.0157 2.33365 15C2.33365 21.9845 8.01579 27.6665 14.9999 27.6665C21.9842 27.6665 27.6665 21.9845 27.6665 15C27.6663 8.0157 21.984 2.33356 14.9999 2.33356V2.33356ZM14.9999 26.4172C8.70456 26.4172 3.58293 21.2955 3.58293 15C3.58293 8.70468 8.70456 3.58284 14.9999 3.58284C21.2952 3.58284 26.4173 8.70468 26.4173 15C26.4171 21.2955 21.2952 26.4172 14.9999 26.4172Z" fill="#BFC6D9"/>
<path d="M20.6564 10.8732C20.9475 10.7229 21.6446 10.2763 21.9732 9.31764C21.9732 9.31764 21.1813 9.89023 20.1036 9.95769L20.084 9.96852C19.8016 9.65948 19.4578 9.41277 19.0746 9.24416C18.6915 9.07555 18.2773 8.98874 17.8587 8.98929C16.1913 8.98929 14.8398 10.341 14.8398 12.0084C14.8398 12.2614 14.8712 12.5071 14.9301 12.7419L14.9156 12.7201C14.9156 12.7201 11.682 12.9054 8.63356 9.57041C8.63356 9.57041 7.28579 11.861 9.59342 13.6127C9.08809 13.6968 8.19569 13.242 8.19569 13.242C8.19569 13.242 8.24607 15.6502 10.6376 16.2399C10.2503 16.3411 9.52596 16.3744 9.29026 16.2736C9.29026 16.2736 9.64381 18.1092 12.0862 18.4295C11.463 18.7832 10.3009 19.8609 7.67328 19.6588C7.67328 19.6588 9.56011 21.2081 13.0633 20.9895C16.5665 20.7708 19.1098 18.4124 20.1371 15.9199C21.1645 13.4274 20.8786 12.0082 20.8786 12.0082C20.8786 12.0082 21.737 11.5576 22.3271 10.4799C22.0546 10.5615 21.0437 10.8085 20.6675 10.8999C20.6637 10.891 20.66 10.8821 20.6564 10.8732Z" fill="#BFC6D9"/>
</svg>
